{"title":"NRL 360 - 15-6-2016","uid":15095649,"size":1234840613,"categoryP":"video","categoryS":"tv_shows","magnet":"?xt=urn:btih:f3d9e4c99d1ca25a111efd1ea4cb05ba32392635&amp;dn=NRL+360+-+15-6-2016&amp;tr=udp%3A%2F%2Ftracker.leechers-paradise.org%3A6969&amp;tr=udp%3A%2F%2Fzer0day.ch%3A1337&amp;tr=udp%3A%2F%2Fopen.demonii.com%3A1337&amp;tr=udp%3A%2F%2Ftracker.coppersurfer.tk%3A6969&amp;tr=udp%3A%2F%2Fexodus.desync.com%3A6969","seeders":3,"leechers":0,"uploader":"Bullrout","files":1,"time":1466916225,"description":"NRL 360 - 15-6-2016\r\n\r\nOn the agenda, Ben &amp; Paul cross to Kevin Walters in Maroons camp, Rabbitohs search for a form reversal &amp; the half-yearly report. Plus Paul Green is at the desk to discuss North Queensland's title defence.\r\n\r\nComplete name : NRL 360 - 15-6-2016.mkv\r\nFormat : Matroska\r\nFormat version : Version 4 / Version 2\r\nFile size : 1.15 GiB\r\nDuration : 49mn 52s\r\nOverall bit rate mode : Variable\r\nOverall bit rate : 3 301 Kbps\r\nEncoded date : UTC 2016-06-15 13:21:28\r\nWriting application : mkvmerge v9.2.0 ('Photograph') 64bit\r\nWriting library : libebml v1.3.3 + libmatroska v1.4.4\r\n\r\nVideo\r\nID : 2\r\nFormat : AVC\r\nFormat/Info : Advanced Video Codec\r\nFormat profile :   \r\nFormat settings, CABAC : Yes\r\nFormat settings, ReFrames : 3 frames\r\nCodec ID : V_MPEG4/ISO/AVC\r\nDuration : 49mn 52s\r\nBit rate mode : Variable\r\nBit rate : 2 916 Kbps\r\nMaximum bit rate : 3 000 Kbps\r\nWidth : 1 280 pixels\r\nHeight : 720 pixels\r\nDisplay aspect ratio : 16:9\r\nFrame rate mode : Constant\r\nFrame rate : 25.000 fps\r\nStandard : PAL\r\nColor space : YUV\r\nChroma subsampling : 4:2:0\r\nBit depth : 8 bits\r\nScan type : Progressive\r\nBits/(Pixel*Frame) : 0.127\r\nStream size : 1.02 GiB (88%)\r\nWriting library : x264 core 112\r\nDefault : Yes\r\nForced : No\r\nColor range : Limited\r\nColor primaries : BT.709\r\nTransfer characteristics : BT.709\r\nMatrix coefficients : BT.709\r\n\r\nAudio\r\nID : 1\r\nFormat : AC-3\r\nFormat/Info : Audio Coding 3\r\nMode extension : CM (complete main)\r\nFormat settings, Endianness : Big\r\nCodec ID : A_AC3\r\nDuration : 49mn 52s\r\nBit rate mode : Constant\r\nBit rate : 384 Kbps\r\nChannel(s) : 6 channels\r\nChannel positions : Front: L C R, Side: L R, LFE\r\nSampling rate : 48.0 KHz\r\nFrame rate : 31.250 fps (1536 spf)\r\nCompression mode : Lossy\r\nStream size : 137 MiB (12%)\r\nDefault : Yes\r\nForced : No","torrent":{"xt":"urn:btih:f3d9e4c99d1ca25a111efd1ea4cb05ba32392635","amp;dn":"NRL+360+-+15-6-2016","amp;tr":["udp%3A%2F%2Ftracker.leechers-paradise.org%3A6969","udp%3A%2F%2Fzer0day.ch%3A1337","udp%3A%2F%2Fopen.demonii.com%3A1337","udp%3A%2F%2Ftracker.coppersurfer.tk%3A6969","udp%3A%2F%2Fexodus.desync.com%3A6969"],"infoHash":"f3d9e4c99d1ca25a111efd1ea4cb05ba32392635","infoHashBuffer":{"type":"Buffer","data":[243,217,228,201,157,28,162,90,17,30,253,30,164,203,5,186,50,57,38,53]},"announce":[],"urlList":[]}}